<?xml version="1.0" encoding="utf-8"?>
<!-- Generator: Adobe Illustrator 16.0.0, SVG Export Plug-In . SVG Version: 6.00 Build 0)  -->
<!DOCTYPE svg PUBLIC "-//W3C//DTD SVG 1.1//EN" "http://www.w3.org/Graphics/SVG/1.1/DTD/svg11.dtd">
<svg version="1.1" id="Layer_1" xmlns="http://www.w3.org/2000/svg" xmlns:xlink="http://www.w3.org/1999/xlink" x="0px" y="0px"
	 width="566.93px" height="566.93px" viewBox="0 0 566.93 566.93" enable-background="new 0 0 566.93 566.93" xml:space="preserve">
<g>
	<polygon points="507.162,138.22 458.938,166.06 458.938,166.079 414.983,191.455 414.97,191.446 368.573,218.231 368.562,218.225 
		322.606,244.755 274.383,272.595 274.383,272.615 274.339,272.64 274.339,272.643 229.429,298.569 229.423,298.565 
		181.199,326.405 181.199,326.411 134.75,353.227 134.75,353.231 88.016,380.211 88.016,380.227 41.264,407.216 41.264,458.324 
		88.883,486.112 369.361,324.492 553.961,217.913 553.961,166.307 	"/>
	<polygon fill="#EFDC7F" points="507.162,140.597 462.877,166.276 506.449,192.141 550.332,166.37 	"/>
	<polygon fill="#EFB550" points="507.814,193.629 551.635,167.951 551.635,216.889 507.814,241.917 	"/>
	<polygon fill="#EFDC7F" points="461.126,167.193 416.841,192.872 460.413,218.737 504.296,192.965 	"/>
	<polygon fill="#EFB550" points="461.778,220.225 505.599,194.546 505.599,243.485 461.778,268.513 	"/>
	<polygon fill="#EFDC7F" points="414.97,193.823 370.685,219.502 414.257,245.367 458.14,219.596 	"/>
	<polygon fill="#EFB550" points="415.622,246.855 459.442,221.177 459.442,270.115 415.622,295.144 	"/>
	<polygon fill="#EFDC7F" points="368.562,220.602 324.277,246.28 367.85,272.146 411.732,246.374 	"/>
	<polygon fill="#EFB550" points="369.215,273.634 413.035,247.955 413.035,296.894 369.215,321.922 	"/>
	<polygon fill="#EFDC7F" points="322.562,247.177 278.277,272.856 321.85,298.721 365.732,272.95 	"/>
	<polygon fill="#EFB550" points="323.215,300.209 367.035,274.531 367.035,323.469 323.215,348.497 	"/>
	<polygon fill="#EFDC7F" points="322.606,247.132 278.321,272.811 321.894,298.676 365.776,272.904 	"/>
	<polygon fill="#EFB550" points="323.259,300.164 367.079,274.485 367.079,323.424 323.259,348.452 	"/>
	<polygon fill="#EFDC7F" points="276.104,274 231.819,299.679 275.392,325.544 319.274,299.772 	"/>
	<polygon fill="#EFB550" points="276.757,327.032 320.577,301.354 320.577,350.292 276.757,375.319 	"/>
	<polygon fill="#EFDC7F" points="229.423,300.942 185.138,326.621 228.71,352.486 272.593,326.715 	"/>
	<polygon fill="#EFB550" points="230.075,353.975 273.896,328.296 273.896,377.234 230.075,402.262 	"/>
	<polygon fill="#EFDC7F" points="182.974,327.764 138.688,353.442 182.261,379.308 226.144,353.536 	"/>
	<polygon fill="#EFB550" points="183.626,380.796 227.446,355.117 227.446,404.056 183.626,429.083 	"/>
	<polygon fill="#EFDC7F" points="136.24,354.748 91.954,380.427 135.527,406.292 179.41,380.521 	"/>
	<polygon fill="#EFB550" points="136.892,407.78 180.713,382.102 180.713,431.04 136.892,456.067 	"/>
	<polygon fill="#EFDC7F" points="89.489,381.753 45.203,407.432 88.776,433.297 132.659,407.525 	"/>
	<polygon fill="#EFB550" points="43.249,409.106 87.535,434.785 87.535,483.538 43.249,457.44 	"/>
	<polygon fill="#EFB550" points="90.14,434.785 133.961,409.106 133.961,458.045 90.14,483.072 	"/>
</g>
</svg>
