<?xml version="1.0" encoding="utf-8"?>
<!-- Generator: Adobe Illustrator 16.0.0, SVG Export Plug-In . SVG Version: 6.00 Build 0)  -->
<!DOCTYPE svg PUBLIC "-//W3C//DTD SVG 1.1//EN" "http://www.w3.org/Graphics/SVG/1.1/DTD/svg11.dtd">
<svg version="1.1" id="Layer_1" xmlns="http://www.w3.org/2000/svg" xmlns:xlink="http://www.w3.org/1999/xlink" x="0px" y="0px"
	 width="566.93px" height="566.93px" viewBox="0 0 566.93 566.93" enable-background="new 0 0 566.93 566.93" xml:space="preserve">
<g>
	<polygon points="464.561,384.527 443.435,372.203 422.31,359.877 401.185,347.549 380.09,335.235 358.994,322.913 337.869,310.586 
		316.744,298.262 295.62,285.935 274.494,273.608 253.398,261.294 231.383,274.004 231.383,274.013 211.315,285.598 
		211.309,285.594 190.126,297.822 190.122,297.819 169.141,309.932 147.125,322.642 147.125,322.651 147.104,322.663 
		147.104,322.664 126.601,334.5 126.598,334.498 104.583,347.208 104.583,347.212 83.376,359.453 83.376,359.456 62.04,371.773 
		62.04,371.78 40.696,384.103 40.696,407.436 61.792,419.746 61.792,419.75 83.532,432.436 83.533,432.436 104.657,444.763 
		104.657,444.763 125.781,457.09 125.784,457.088 146.906,469.414 146.907,469.414 167.386,481.364 167.386,481.377 
		188.483,493.688 188.483,493.69 210.223,506.376 210.224,506.376 231.348,518.704 231.349,518.704 252.472,531.03 252.474,531.028 
		273.597,543.354 401.648,469.569 485.926,420.911 485.926,397.351 	"/>
	<g>
		<polygon fill="#EFB550" points="41.602,383.346 61.821,395.07 61.821,417.328 41.602,405.412 		"/>
		<polygon fill="#EFB550" points="62.698,395.66 82.917,407.383 82.917,429.642 62.698,417.727 		"/>
		<polygon fill="#EFB550" points="83.823,407.987 104.042,419.71 104.042,441.967 83.823,430.054 		"/>
		<polygon fill="#EFB550" points="104.948,420.313 125.166,432.037 125.166,454.294 104.948,442.379 		"/>
		<polygon fill="#EFB550" points="126.072,432.638 146.291,444.36 146.291,466.619 126.072,454.705 		"/>
		<polygon fill="#EFB550" points="147.197,444.965 167.416,456.688 167.416,478.946 147.197,467.031 		"/>
		<polygon fill="#EFB550" points="168.292,457.286 188.511,469.01 188.511,491.269 168.292,479.354 		"/>
		<polygon fill="#EFB550" points="189.389,469.601 209.607,481.325 209.607,503.583 189.389,491.667 		"/>
		<polygon fill="#EFB550" points="210.514,481.928 230.732,493.65 230.732,515.909 210.514,503.995 		"/>
		<polygon fill="#EFB550" points="231.638,494.255 251.856,505.978 251.856,528.237 231.638,516.321 		"/>
		<polygon fill="#EFB550" points="464.857,408.87 484.864,397.331 484.864,419.395 464.857,430.821 		"/>
		<polygon fill="#EFB550" points="443.84,420.995 463.846,409.456 463.846,431.536 443.84,442.962 		"/>
		<polygon fill="#EFB550" points="422.768,433.153 442.773,421.611 442.773,443.694 422.768,455.121 		"/>
		<polygon fill="#EFB550" points="401.581,445.374 421.588,433.834 421.588,455.92 401.581,467.347 		"/>
		<polygon fill="#EFB550" points="380.581,457.489 400.586,445.928 400.586,468.053 380.581,479.48 		"/>
		<polygon fill="#EFB550" points="359.369,469.724 379.375,458.184 379.375,480.297 359.369,491.725 		"/>
		<polygon fill="#EFB550" points="338.058,482.019 358.062,470.464 358.062,492.599 338.058,504.025 		"/>
		<polygon fill="#EFB550" points="316.852,494.252 336.857,482.712 336.857,504.843 316.852,516.271 		"/>
		<polygon fill="#EFB550" points="295.515,506.577 315.483,495.047 315.521,517.195 295.515,528.623 		"/>
		<polygon fill="#EFB550" points="252.764,506.579 272.981,518.304 272.981,540.561 252.764,528.646 		"/>
		<polygon fill="#EFB550" points="274.17,518.874 294.177,507.332 294.177,529.492 274.17,540.917 		"/>
	</g>
	<polygon points="464.561,362.446 443.435,350.122 422.31,337.796 401.185,325.468 380.09,313.154 358.994,300.832 337.869,288.504 
		316.744,276.18 295.62,263.854 274.494,251.526 253.398,239.212 231.383,251.923 231.383,251.931 211.315,263.517 211.309,263.513 
		190.126,275.741 190.122,275.738 169.141,287.851 147.125,300.56 147.125,300.569 147.104,300.58 147.104,300.582 126.601,312.419 
		126.598,312.416 104.583,325.127 104.583,325.131 83.376,337.371 83.376,337.375 62.04,349.691 62.04,349.699 40.696,362.021 
		40.696,385.354 61.792,397.666 61.792,397.669 83.532,410.354 83.533,410.354 104.657,422.682 104.657,422.682 125.781,435.009 
		125.784,435.007 146.906,447.332 146.907,447.332 167.386,459.283 167.386,459.296 188.483,471.606 188.483,471.609 
		210.223,484.295 210.224,484.295 231.348,496.623 231.349,496.623 252.472,508.949 252.474,508.947 273.597,521.273 
		401.648,447.488 485.926,398.829 485.926,375.27 	"/>
	<g>
		<polygon fill="#EFB550" points="41.602,361.265 61.821,372.989 61.821,395.246 41.602,383.331 		"/>
		<polygon fill="#EFB550" points="62.698,373.578 82.917,385.301 82.917,407.561 62.698,395.646 		"/>
		<polygon fill="#EFB550" points="83.823,385.906 104.042,397.628 104.042,419.886 83.823,407.973 		"/>
		<polygon fill="#EFB550" points="104.948,398.232 125.166,409.955 125.166,432.213 104.948,420.298 		"/>
		<polygon fill="#EFB550" points="126.072,410.557 146.291,422.279 146.291,444.538 126.072,432.623 		"/>
		<polygon fill="#EFB550" points="147.197,422.883 167.416,434.605 167.416,456.865 147.197,444.95 		"/>
		<polygon fill="#EFB550" points="168.292,435.205 188.511,446.928 188.511,469.188 168.292,457.272 		"/>
		<polygon fill="#EFB550" points="189.389,447.52 209.607,459.244 209.607,481.501 189.389,469.586 		"/>
		<polygon fill="#EFB550" points="210.514,459.847 230.732,471.569 230.732,493.828 210.514,481.914 		"/>
		<polygon fill="#EFB550" points="231.638,472.174 251.856,483.896 251.856,506.155 231.638,494.24 		"/>
		<polygon fill="#EFB550" points="464.857,386.789 484.864,375.25 484.864,397.313 464.857,408.74 		"/>
		<polygon fill="#EFB550" points="443.84,398.914 463.846,387.375 463.846,409.454 443.84,420.881 		"/>
		<polygon fill="#EFB550" points="422.768,411.072 442.773,399.53 442.773,421.613 422.768,433.04 		"/>
		<polygon fill="#EFB550" points="401.581,423.292 421.588,411.753 421.588,433.838 401.581,445.266 		"/>
		<polygon fill="#EFB550" points="380.581,435.408 400.586,423.847 400.586,445.972 380.581,457.398 		"/>
		<polygon fill="#EFB550" points="359.369,447.643 379.375,436.103 379.375,458.216 359.369,469.643 		"/>
		<polygon fill="#EFB550" points="338.058,459.938 358.062,448.383 358.062,470.518 338.058,481.944 		"/>
		<polygon fill="#EFB550" points="316.852,472.171 336.857,460.631 336.857,482.762 316.852,494.188 		"/>
		<polygon fill="#EFB550" points="295.515,484.496 315.483,472.966 315.521,495.114 295.515,506.542 		"/>
		<polygon fill="#EFB550" points="252.764,484.497 272.981,496.222 272.981,518.479 252.764,506.564 		"/>
		<polygon fill="#EFB550" points="274.17,496.792 294.177,485.251 294.177,507.411 274.17,518.837 		"/>
	</g>
	<polygon points="464.561,340.365 443.435,328.041 422.31,315.714 401.185,303.388 380.09,291.072 358.994,278.75 337.869,266.423 
		316.744,254.099 295.62,241.772 274.494,229.445 253.398,217.131 231.383,229.842 231.383,229.85 211.315,241.435 211.309,241.432 
		190.126,253.66 190.122,253.657 169.141,265.769 147.125,278.479 147.125,278.488 147.104,278.5 147.104,278.501 126.601,290.338 
		126.598,290.335 104.583,303.045 104.583,303.049 83.376,315.291 83.376,315.293 62.04,327.61 62.04,327.618 40.696,339.939 
		40.696,363.273 61.792,375.584 61.792,375.587 83.532,388.272 83.533,388.272 104.657,400.601 104.657,400.601 125.781,412.927 
		125.784,412.925 146.906,425.251 146.907,425.251 167.386,437.201 167.386,437.214 188.483,449.525 188.483,449.528 
		210.223,462.214 210.224,462.214 231.348,474.541 231.349,474.541 252.472,486.868 252.474,486.866 273.597,499.192 
		401.648,425.405 485.926,376.748 485.926,353.188 	"/>
	<g>
		<polygon fill="#EFB550" points="41.602,339.184 61.821,350.907 61.821,373.165 41.602,361.25 		"/>
		<polygon fill="#EFB550" points="62.698,351.497 82.917,363.22 82.917,385.479 62.698,373.563 		"/>
		<polygon fill="#EFB550" points="83.823,363.824 104.042,375.547 104.042,397.804 83.823,385.892 		"/>
		<polygon fill="#EFB550" points="104.948,376.151 125.166,387.874 125.166,410.132 104.948,398.217 		"/>
		<polygon fill="#EFB550" points="126.072,388.476 146.291,400.198 146.291,422.456 126.072,410.542 		"/>
		<polygon fill="#EFB550" points="147.197,400.802 167.416,412.524 167.416,434.784 147.197,422.869 		"/>
		<polygon fill="#EFB550" points="168.292,413.124 188.511,424.847 188.511,447.106 168.292,435.19 		"/>
		<polygon fill="#EFB550" points="189.389,425.438 209.607,437.162 209.607,459.42 189.389,447.505 		"/>
		<polygon fill="#EFB550" points="210.514,437.766 230.732,449.488 230.732,471.747 210.514,459.832 		"/>
		<polygon fill="#EFB550" points="231.638,450.092 251.856,461.815 251.856,484.074 231.638,472.159 		"/>
		<polygon fill="#EFB550" points="464.857,364.708 484.864,353.169 484.864,375.231 464.857,386.659 		"/>
		<polygon fill="#EFB550" points="443.84,376.833 463.846,365.294 463.846,387.373 443.84,398.8 		"/>
		<polygon fill="#EFB550" points="422.768,388.99 442.773,377.448 442.773,399.531 422.768,410.959 		"/>
		<polygon fill="#EFB550" points="401.581,401.211 421.588,389.671 421.588,411.757 401.581,423.185 		"/>
		<polygon fill="#EFB550" points="380.581,413.326 400.586,401.766 400.586,423.891 380.581,435.317 		"/>
		<polygon fill="#EFB550" points="359.369,425.561 379.375,414.021 379.375,436.135 359.369,447.562 		"/>
		<polygon fill="#EFB550" points="338.058,437.855 358.062,426.302 358.062,448.436 338.058,459.863 		"/>
		<polygon fill="#EFB550" points="316.852,450.09 336.857,438.55 336.857,460.681 316.852,472.107 		"/>
		<polygon fill="#EFB550" points="295.515,462.414 315.483,450.884 315.521,473.033 295.515,484.46 		"/>
		<polygon fill="#EFB550" points="252.764,462.416 272.981,474.141 272.981,496.397 252.764,484.483 		"/>
		<polygon fill="#EFB550" points="274.17,474.711 294.177,463.169 294.177,485.33 274.17,496.755 		"/>
	</g>
	<polygon points="464.561,318.335 443.435,306.011 422.31,293.684 401.185,281.358 380.09,269.043 358.994,256.72 337.869,244.394 
		316.744,232.069 295.62,219.742 274.494,207.416 253.398,195.102 231.383,207.812 231.383,207.82 211.315,219.406 211.309,219.402 
		190.126,231.63 190.122,231.627 169.141,243.74 147.125,256.449 147.125,256.458 147.104,256.47 147.104,256.472 126.601,268.309 
		126.598,268.306 104.583,281.016 104.583,281.019 83.376,293.262 83.376,293.264 62.04,305.581 62.04,305.587 40.696,317.91 
		40.696,341.243 61.792,353.555 61.792,353.558 83.532,366.243 83.533,366.243 104.657,378.57 104.657,378.57 125.781,390.897 
		125.784,390.896 146.906,403.222 146.907,403.222 167.386,415.172 167.386,415.185 188.483,427.496 188.483,427.498 
		210.223,440.185 210.224,440.185 231.348,452.512 231.349,452.512 252.472,464.838 252.474,464.837 273.597,477.162 
		401.648,403.377 485.926,354.719 485.926,331.158 	"/>
	<g>
		<polygon fill="#EFB550" points="41.602,317.153 61.821,328.878 61.821,351.136 41.602,339.22 		"/>
		<polygon fill="#EFB550" points="62.698,329.468 82.917,341.19 82.917,363.449 62.698,351.534 		"/>
		<polygon fill="#EFB550" points="83.823,341.795 104.042,353.518 104.042,375.775 83.823,363.861 		"/>
		<polygon fill="#EFB550" points="104.948,354.121 125.166,365.845 125.166,388.102 104.948,376.187 		"/>
		<polygon fill="#EFB550" points="126.072,366.445 146.291,378.168 146.291,400.428 126.072,388.513 		"/>
		<polygon fill="#EFB550" points="147.197,378.772 167.416,390.495 167.416,412.754 147.197,400.839 		"/>
		<polygon fill="#EFB550" points="168.292,391.094 188.511,402.817 188.511,425.076 168.292,413.161 		"/>
		<polygon fill="#EFB550" points="189.389,403.409 209.607,415.133 209.607,437.391 189.389,425.475 		"/>
		<polygon fill="#EFB550" points="210.514,415.735 230.732,427.459 230.732,449.717 210.514,437.803 		"/>
		<polygon fill="#EFB550" points="231.638,428.062 251.856,439.785 251.856,462.045 231.638,450.129 		"/>
		<polygon fill="#EFB550" points="464.857,342.679 484.864,331.139 484.864,353.202 464.857,364.629 		"/>
		<polygon fill="#EFB550" points="443.84,354.804 463.846,343.264 463.846,365.344 443.84,376.771 		"/>
		<polygon fill="#EFB550" points="422.768,366.961 442.773,355.42 442.773,377.502 422.768,388.929 		"/>
		<polygon fill="#EFB550" points="401.581,379.182 421.588,367.642 421.588,389.728 401.581,401.154 		"/>
		<polygon fill="#EFB550" points="380.581,391.297 400.586,379.736 400.586,401.86 380.581,413.288 		"/>
		<polygon fill="#EFB550" points="359.369,403.531 379.375,391.992 379.375,414.104 359.369,425.532 		"/>
		<polygon fill="#EFB550" points="338.058,415.826 358.062,404.271 358.062,426.406 338.058,437.833 		"/>
		<polygon fill="#EFB550" points="316.852,428.06 336.857,416.52 336.857,438.65 316.852,450.078 		"/>
		<polygon fill="#EFB550" points="295.515,440.385 315.483,428.854 315.521,451.004 295.515,462.431 		"/>
		<polygon fill="#EFB550" points="252.764,440.387 272.981,452.111 272.981,474.368 252.764,462.453 		"/>
		<polygon fill="#EFB550" points="274.17,452.682 294.177,441.14 294.177,463.301 274.17,474.726 		"/>
	</g>
	<polygon points="464.561,296.201 443.435,283.878 422.31,271.551 401.185,259.225 380.09,246.91 358.994,234.587 337.869,222.26 
		316.744,209.937 295.62,197.609 274.494,185.283 253.398,172.969 231.383,185.679 231.383,185.688 211.315,197.272 
		211.309,197.269 190.126,209.497 190.122,209.494 169.141,221.606 147.125,234.316 147.125,234.326 147.104,234.337 
		147.104,234.338 126.601,246.175 126.598,246.173 104.583,258.883 104.583,258.886 83.376,271.128 83.376,271.13 62.04,283.448 
		62.04,283.454 40.696,295.777 40.696,319.11 61.792,331.421 61.792,331.425 83.532,344.11 83.533,344.11 104.657,356.438 
		104.657,356.438 125.781,368.765 125.784,368.763 146.906,381.089 146.907,381.089 167.386,393.039 167.386,393.052 
		188.483,405.363 188.483,405.365 210.223,418.051 210.224,418.051 231.348,430.379 231.349,430.379 252.472,442.705 
		252.474,442.703 273.597,455.029 401.648,381.243 485.926,332.585 485.926,309.024 	"/>
	<g>
		<polygon fill="#EFB550" points="41.602,295.021 61.821,306.744 61.821,329.003 41.602,317.087 		"/>
		<polygon fill="#EFB550" points="62.698,307.335 82.917,319.058 82.917,341.316 62.698,329.401 		"/>
		<polygon fill="#EFB550" points="83.823,319.662 104.042,331.384 104.042,353.642 83.823,341.729 		"/>
		<polygon fill="#EFB550" points="104.948,331.988 125.166,343.712 125.166,365.969 104.948,354.054 		"/>
		<polygon fill="#EFB550" points="126.072,344.312 146.291,356.035 146.291,378.294 126.072,366.38 		"/>
		<polygon fill="#EFB550" points="147.197,356.64 167.416,368.362 167.416,390.621 147.197,378.706 		"/>
		<polygon fill="#EFB550" points="168.292,368.961 188.511,380.685 188.511,402.943 168.292,391.028 		"/>
		<polygon fill="#EFB550" points="189.389,381.275 209.607,393 209.607,415.258 189.389,403.342 		"/>
		<polygon fill="#EFB550" points="210.514,393.603 230.732,405.326 230.732,427.584 210.514,415.67 		"/>
		<polygon fill="#EFB550" points="231.638,405.93 251.856,417.652 251.856,439.912 231.638,427.996 		"/>
		<polygon fill="#EFB550" points="464.857,320.545 484.864,309.006 484.864,331.069 464.857,342.496 		"/>
		<polygon fill="#EFB550" points="443.84,332.67 463.846,321.13 463.846,343.211 443.84,354.637 		"/>
		<polygon fill="#EFB550" points="422.768,344.828 442.773,333.286 442.773,355.369 422.768,366.796 		"/>
		<polygon fill="#EFB550" points="401.581,357.048 421.588,345.509 421.588,367.595 401.581,379.021 		"/>
		<polygon fill="#EFB550" points="380.581,369.164 400.586,357.603 400.586,379.728 380.581,391.155 		"/>
		<polygon fill="#EFB550" points="359.369,381.398 379.375,369.858 379.375,391.972 359.369,403.399 		"/>
		<polygon fill="#EFB550" points="338.058,393.693 358.062,382.139 358.062,404.273 338.058,415.7 		"/>
		<polygon fill="#EFB550" points="316.852,405.927 336.857,394.387 336.857,416.518 316.852,427.945 		"/>
		<polygon fill="#EFB550" points="295.515,418.252 315.483,406.722 315.521,428.871 295.515,440.298 		"/>
		<polygon fill="#EFB550" points="252.764,418.254 272.981,429.979 272.981,452.234 252.764,440.32 		"/>
		<polygon fill="#EFB550" points="274.17,430.549 294.177,419.007 294.177,441.168 274.17,452.592 		"/>
	</g>
	<polygon points="464.561,274.02 443.435,261.696 422.31,249.369 401.185,237.043 380.09,224.728 358.994,212.406 337.869,200.079 
		316.744,187.755 295.62,175.428 274.494,163.101 253.398,150.787 231.383,163.498 231.383,163.506 211.315,175.091 
		211.309,175.087 190.126,187.315 190.122,187.312 169.141,199.425 147.125,212.135 147.125,212.144 147.104,212.155 
		147.104,212.157 126.601,223.994 126.598,223.991 104.583,236.701 104.583,236.704 83.376,248.946 83.376,248.949 62.04,261.266 
		62.04,261.272 40.696,273.596 40.696,296.929 61.792,309.239 61.792,309.243 83.532,321.929 83.533,321.929 104.657,334.256 
		104.657,334.256 125.781,346.583 125.784,346.581 146.906,358.907 146.907,358.907 167.386,370.857 167.386,370.87 
		188.483,383.182 188.483,383.184 210.223,395.87 210.224,395.87 231.348,408.197 231.349,408.197 252.472,420.523 252.474,420.522 
		273.597,432.848 401.648,359.062 485.926,310.404 485.926,286.843 	"/>
	<g>
		<polygon fill="#EFB550" points="41.602,272.839 61.821,284.562 61.821,306.82 41.602,294.905 		"/>
		<polygon fill="#EFB550" points="62.698,285.153 82.917,296.877 82.917,319.135 62.698,307.22 		"/>
		<polygon fill="#EFB550" points="83.823,297.479 104.042,309.203 104.042,331.46 83.823,319.547 		"/>
		<polygon fill="#EFB550" points="104.948,309.807 125.166,321.53 125.166,343.787 104.948,331.872 		"/>
		<polygon fill="#EFB550" points="126.072,322.131 146.291,333.854 146.291,356.112 126.072,344.198 		"/>
		<polygon fill="#EFB550" points="147.197,334.458 167.416,346.181 167.416,368.439 147.197,356.524 		"/>
		<polygon fill="#EFB550" points="168.292,346.779 188.511,358.503 188.511,380.762 168.292,368.847 		"/>
		<polygon fill="#EFB550" points="189.389,359.094 209.607,370.818 209.607,393.076 189.389,381.16 		"/>
		<polygon fill="#EFB550" points="210.514,371.421 230.732,383.145 230.732,405.402 210.514,393.488 		"/>
		<polygon fill="#EFB550" points="231.638,383.748 251.856,395.471 251.856,417.73 231.638,405.814 		"/>
		<polygon fill="#EFB550" points="464.857,298.364 484.864,286.824 484.864,308.888 464.857,320.314 		"/>
		<polygon fill="#EFB550" points="443.84,310.489 463.846,298.948 463.846,321.029 443.84,332.456 		"/>
		<polygon fill="#EFB550" points="422.768,322.646 442.773,311.105 442.773,333.188 422.768,344.614 		"/>
		<polygon fill="#EFB550" points="401.581,334.867 421.588,323.327 421.588,345.413 401.581,356.84 		"/>
		<polygon fill="#EFB550" points="380.581,346.982 400.586,335.421 400.586,357.546 380.581,368.974 		"/>
		<polygon fill="#EFB550" points="359.369,359.217 379.375,347.677 379.375,369.79 359.369,381.218 		"/>
		<polygon fill="#EFB550" points="338.058,371.512 358.062,359.957 358.062,382.092 338.058,393.519 		"/>
		<polygon fill="#EFB550" points="316.852,383.745 336.857,372.205 336.857,394.336 316.852,405.764 		"/>
		<polygon fill="#EFB550" points="295.515,396.07 315.483,384.54 315.521,406.689 295.515,418.116 		"/>
		<polygon fill="#EFB550" points="252.764,396.072 272.981,407.797 272.981,430.054 252.764,418.139 		"/>
		<polygon fill="#EFB550" points="274.17,408.367 294.177,396.825 294.177,418.986 274.17,430.411 		"/>
	</g>
	<polygon points="464.561,251.939 443.435,239.615 422.31,227.288 401.185,214.961 380.09,202.646 358.994,190.325 337.869,177.998 
		316.744,165.673 295.62,153.347 274.494,141.02 253.398,128.706 231.383,141.416 231.383,141.424 211.315,153.01 211.309,153.006 
		190.126,165.234 190.122,165.231 169.141,177.344 147.125,190.053 147.125,190.063 147.104,190.074 147.104,190.076 
		126.601,201.912 126.598,201.91 104.583,214.62 104.583,214.623 83.376,226.865 83.376,226.868 62.04,239.185 62.04,239.191 
		40.696,251.515 40.696,274.847 61.792,287.158 61.792,287.161 83.532,299.849 83.533,299.848 104.657,312.174 104.657,312.174 
		125.781,324.502 125.784,324.5 146.906,336.825 146.907,336.825 167.386,348.776 167.386,348.789 188.483,361.1 188.483,361.103 
		210.223,373.788 210.224,373.788 231.348,386.116 231.349,386.116 252.472,398.442 252.474,398.441 273.597,410.767 
		401.648,336.981 485.926,288.322 485.926,264.762 	"/>
	<g>
		<polygon fill="#EFB550" points="41.602,250.758 61.821,262.481 61.821,284.739 41.602,272.824 		"/>
		<polygon fill="#EFB550" points="62.698,263.072 82.917,274.795 82.917,297.053 62.698,285.139 		"/>
		<polygon fill="#EFB550" points="83.823,275.398 104.042,287.122 104.042,309.38 83.823,297.465 		"/>
		<polygon fill="#EFB550" points="104.948,287.726 125.166,299.448 125.166,321.706 104.948,309.792 		"/>
		<polygon fill="#EFB550" points="126.072,300.049 146.291,311.772 146.291,334.031 126.072,322.116 		"/>
		<polygon fill="#EFB550" points="147.197,312.376 167.416,324.1 167.416,346.358 147.197,334.443 		"/>
		<polygon fill="#EFB550" points="168.292,324.698 188.511,336.421 188.511,358.681 168.292,346.766 		"/>
		<polygon fill="#EFB550" points="189.389,337.013 209.607,348.737 209.607,370.994 189.389,359.079 		"/>
		<polygon fill="#EFB550" points="210.514,349.34 230.732,361.062 230.732,383.321 210.514,371.407 		"/>
		<polygon fill="#EFB550" points="231.638,361.667 251.856,373.39 251.856,395.648 231.638,383.733 		"/>
		<polygon fill="#EFB550" points="464.857,276.283 484.864,264.743 484.864,286.807 464.857,298.232 		"/>
		<polygon fill="#EFB550" points="443.84,288.408 463.846,276.867 463.846,298.947 443.84,310.374 		"/>
		<polygon fill="#EFB550" points="422.768,300.565 442.773,289.024 442.773,311.106 422.768,322.533 		"/>
		<polygon fill="#EFB550" points="401.581,312.786 421.588,301.246 421.588,323.332 401.581,334.759 		"/>
		<polygon fill="#EFB550" points="380.581,324.901 400.586,313.34 400.586,335.465 380.581,346.892 		"/>
		<polygon fill="#EFB550" points="359.369,337.136 379.375,325.596 379.375,347.709 359.369,359.137 		"/>
		<polygon fill="#EFB550" points="338.058,349.431 358.062,337.876 358.062,360.011 338.058,371.438 		"/>
		<polygon fill="#EFB550" points="316.852,361.664 336.857,350.124 336.857,372.255 316.852,383.682 		"/>
		<polygon fill="#EFB550" points="295.515,373.989 315.483,362.459 315.521,384.607 295.515,396.035 		"/>
		<polygon fill="#EFB550" points="252.764,373.99 272.981,385.715 272.981,407.973 252.764,396.058 		"/>
		<polygon fill="#EFB550" points="274.17,386.285 294.177,374.744 294.177,396.904 274.17,408.33 		"/>
	</g>
	<polygon points="464.561,229.857 443.435,217.534 422.31,205.207 401.185,192.88 380.09,180.565 358.994,168.243 337.869,155.916 
		316.744,143.592 295.62,131.265 274.494,118.938 253.398,106.625 231.383,119.335 231.383,119.343 211.315,130.929 
		211.309,130.925 190.126,143.153 190.122,143.15 169.141,155.262 147.125,167.972 147.125,167.981 147.104,167.993 
		147.104,167.995 126.601,179.831 126.598,179.829 104.583,192.539 104.583,192.542 83.376,204.784 83.376,204.787 62.04,217.104 
		62.04,217.11 40.696,229.433 40.696,252.766 61.792,265.077 61.792,265.08 83.532,277.767 83.533,277.766 104.657,290.093 
		104.657,290.093 125.781,302.42 125.784,302.418 146.906,314.744 146.907,314.744 167.386,326.694 167.386,326.707 
		188.483,339.019 188.483,339.021 210.223,351.708 210.224,351.708 231.348,364.034 231.349,364.034 252.472,376.361 
		252.474,376.359 273.597,388.686 401.648,314.898 485.926,266.241 485.926,242.681 	"/>
	<g>
		<polygon fill="#EFB550" points="41.602,228.676 61.821,240.4 61.821,262.658 41.602,250.743 		"/>
		<polygon fill="#EFB550" points="62.698,240.991 82.917,252.713 82.917,274.972 62.698,263.057 		"/>
		<polygon fill="#EFB550" points="83.823,253.317 104.042,265.041 104.042,287.298 83.823,275.384 		"/>
		<polygon fill="#EFB550" points="104.948,265.644 125.166,277.367 125.166,299.625 104.948,287.71 		"/>
		<polygon fill="#EFB550" points="126.072,277.968 146.291,289.691 146.291,311.949 126.072,300.034 		"/>
		<polygon fill="#EFB550" points="147.197,290.295 167.416,302.019 167.416,324.277 147.197,312.362 		"/>
		<polygon fill="#EFB550" points="168.292,302.618 188.511,314.341 188.511,336.6 168.292,324.684 		"/>
		<polygon fill="#EFB550" points="189.389,314.932 209.607,326.656 209.607,348.913 189.389,336.998 		"/>
		<polygon fill="#EFB550" points="210.514,327.259 230.732,338.981 230.732,361.24 210.514,349.325 		"/>
		<polygon fill="#EFB550" points="231.638,339.585 251.856,351.309 251.856,373.567 231.638,361.652 		"/>
		<polygon fill="#EFB550" points="464.857,254.202 484.864,242.662 484.864,264.726 464.857,276.152 		"/>
		<polygon fill="#EFB550" points="443.84,266.327 463.846,254.786 463.846,276.866 443.84,288.293 		"/>
		<polygon fill="#EFB550" points="422.768,278.483 442.773,266.943 442.773,289.025 422.768,300.452 		"/>
		<polygon fill="#EFB550" points="401.581,290.705 421.588,279.165 421.588,301.25 401.581,312.677 		"/>
		<polygon fill="#EFB550" points="380.581,302.818 400.586,291.259 400.586,313.384 380.581,324.811 		"/>
		<polygon fill="#EFB550" points="359.369,315.054 379.375,303.515 379.375,325.628 359.369,337.055 		"/>
		<polygon fill="#EFB550" points="338.058,327.35 358.062,315.795 358.062,337.93 338.058,349.356 		"/>
		<polygon fill="#EFB550" points="316.852,339.583 336.857,328.043 336.857,350.174 316.852,361.601 		"/>
		<polygon fill="#EFB550" points="295.515,351.907 315.483,340.377 315.521,362.526 295.515,373.953 		"/>
		<polygon fill="#EFB550" points="252.764,351.909 272.981,363.634 272.981,385.892 252.764,373.977 		"/>
		<polygon fill="#EFB550" points="274.17,364.204 294.177,352.662 294.177,374.823 274.17,386.249 		"/>
	</g>
	<polygon points="464.561,207.828 443.435,195.504 422.31,183.177 401.185,170.851 380.09,158.536 358.994,146.214 337.869,133.887 
		316.744,121.562 295.62,109.236 274.494,96.909 253.398,84.595 231.383,97.305 231.383,97.313 211.315,108.899 211.309,108.895 
		190.126,121.124 190.122,121.121 169.141,133.233 147.125,145.942 147.125,145.952 147.104,145.963 147.104,145.965 
		126.601,157.802 126.598,157.799 104.583,170.509 104.583,170.513 83.376,182.754 83.376,182.757 62.04,195.074 62.04,195.081 
		40.696,207.404 40.696,230.737 61.792,243.047 61.792,243.051 83.532,255.737 83.533,255.736 104.657,268.063 104.657,268.063 
		125.781,280.391 125.784,280.389 146.906,292.715 146.907,292.715 167.386,304.665 167.386,304.678 188.483,316.989 
		188.483,316.991 210.223,329.678 210.224,329.678 231.348,342.005 231.349,342.005 252.472,354.331 252.474,354.33 
		273.597,366.655 401.648,292.869 485.926,244.211 485.926,220.651 	"/>
	<g>
		<polygon fill="#EFB550" points="41.602,207.338 61.821,219.062 61.821,241.32 41.602,229.405 		"/>
		<polygon fill="#EFB550" points="62.698,219.653 82.917,231.375 82.917,253.634 62.698,241.719 		"/>
		<polygon fill="#EFB550" points="83.823,231.979 104.042,243.702 104.042,265.96 83.823,254.046 		"/>
		<polygon fill="#EFB550" points="104.948,244.306 125.166,256.028 125.166,278.287 104.948,266.372 		"/>
		<polygon fill="#EFB550" points="126.072,256.629 146.291,268.354 146.291,290.611 126.072,278.696 		"/>
		<polygon fill="#EFB550" points="147.197,268.957 167.416,280.68 167.416,302.938 147.197,291.023 		"/>
		<polygon fill="#EFB550" points="168.292,281.28 188.511,293.003 188.511,315.261 168.292,303.346 		"/>
		<polygon fill="#EFB550" points="189.389,293.594 209.607,305.317 209.607,327.575 189.389,315.66 		"/>
		<polygon fill="#EFB550" points="210.514,305.92 230.732,317.644 230.732,339.902 210.514,327.987 		"/>
		<polygon fill="#EFB550" points="231.638,318.247 251.856,329.97 251.856,352.229 231.638,340.313 		"/>
		<polygon fill="#EFB550" points="464.857,232.864 484.864,221.324 484.864,243.387 464.857,254.813 		"/>
		<polygon fill="#EFB550" points="443.84,244.989 463.846,233.448 463.846,255.528 443.84,266.955 		"/>
		<polygon fill="#EFB550" points="422.768,257.146 442.773,245.604 442.773,267.687 422.768,279.114 		"/>
		<polygon fill="#EFB550" points="401.581,269.366 421.588,257.827 421.588,279.912 401.581,291.339 		"/>
		<polygon fill="#EFB550" points="380.581,281.481 400.586,269.921 400.586,292.045 380.581,303.472 		"/>
		<polygon fill="#EFB550" points="359.369,293.717 379.375,282.177 379.375,304.29 359.369,315.717 		"/>
		<polygon fill="#EFB550" points="338.058,306.012 358.062,294.457 358.062,316.591 338.058,328.018 		"/>
		<polygon fill="#EFB550" points="316.852,318.244 336.857,306.704 336.857,328.835 316.852,340.263 		"/>
		<polygon fill="#EFB550" points="295.515,330.569 315.483,319.039 315.521,341.188 295.515,352.615 		"/>
		<polygon fill="#EFB550" points="252.764,330.571 272.981,342.296 272.981,364.553 252.764,352.638 		"/>
		<polygon fill="#EFB550" points="274.17,342.866 294.177,331.324 294.177,353.485 274.17,364.91 		"/>
	</g>
	<polygon points="464.561,185.695 443.435,173.371 422.31,161.044 401.185,148.718 380.09,136.403 358.994,124.081 337.869,111.753 
		316.744,99.43 295.62,87.103 274.494,74.776 253.398,62.462 231.383,75.172 231.383,75.181 211.315,86.766 211.309,86.762 
		190.126,98.99 190.122,98.987 169.141,111.1 147.125,123.81 147.125,123.819 147.104,123.83 147.104,123.832 126.601,135.668 
		126.598,135.666 104.583,148.376 104.583,148.379 83.376,160.621 83.376,160.624 62.04,172.941 62.04,172.947 40.696,185.271 
		40.696,208.604 61.792,220.914 61.792,220.917 83.532,233.604 83.533,233.604 104.657,245.931 104.657,245.931 125.781,258.257 
		125.784,258.256 146.906,270.581 146.907,270.581 167.386,282.533 167.386,282.544 188.483,294.855 188.483,294.858 
		210.223,307.545 210.224,307.545 231.348,319.872 231.349,319.872 252.472,332.198 252.474,332.197 273.597,344.522 
		401.648,270.736 485.926,222.079 485.926,198.518 	"/>
	<g>
		<polygon fill="#EFB550" points="41.602,185.205 61.821,196.929 61.821,219.187 41.602,207.271 		"/>
		<polygon fill="#EFB550" points="62.698,197.52 82.917,209.242 82.917,231.501 62.698,219.586 		"/>
		<polygon fill="#EFB550" points="83.823,209.846 104.042,221.569 104.042,243.827 83.823,231.913 		"/>
		<polygon fill="#EFB550" points="104.948,222.173 125.166,233.896 125.166,256.154 104.948,244.239 		"/>
		<polygon fill="#EFB550" points="126.072,234.497 146.291,246.22 146.291,268.479 126.072,256.563 		"/>
		<polygon fill="#EFB550" points="147.197,246.824 167.416,258.547 167.416,280.806 147.197,268.891 		"/>
		<polygon fill="#EFB550" points="168.292,259.147 188.511,270.869 188.511,293.127 168.292,281.213 		"/>
		<polygon fill="#EFB550" points="189.389,271.461 209.607,283.184 209.607,305.441 189.389,293.527 		"/>
		<polygon fill="#EFB550" points="210.514,283.787 230.732,295.511 230.732,317.769 210.514,305.854 		"/>
		<polygon fill="#EFB550" points="231.638,296.114 251.856,307.837 251.856,330.097 231.638,318.181 		"/>
		<polygon fill="#EFB550" points="464.857,210.731 484.864,199.191 484.864,221.254 464.857,232.68 		"/>
		<polygon fill="#EFB550" points="443.84,222.856 463.846,211.315 463.846,233.395 443.84,244.821 		"/>
		<polygon fill="#EFB550" points="422.768,235.012 442.773,223.472 442.773,245.554 422.768,256.98 		"/>
		<polygon fill="#EFB550" points="401.581,247.233 421.588,235.693 421.588,257.779 401.581,269.206 		"/>
		<polygon fill="#EFB550" points="380.581,259.348 400.586,247.788 400.586,269.912 380.581,281.338 		"/>
		<polygon fill="#EFB550" points="359.369,271.583 379.375,260.044 379.375,282.157 359.369,293.583 		"/>
		<polygon fill="#EFB550" points="338.058,283.879 358.062,272.324 358.062,294.458 338.058,305.884 		"/>
		<polygon fill="#EFB550" points="316.852,296.111 336.857,284.571 336.857,306.703 316.852,318.13 		"/>
		<polygon fill="#EFB550" points="295.515,308.438 315.483,296.906 315.521,319.056 295.515,330.482 		"/>
		<polygon fill="#EFB550" points="252.764,308.438 272.981,320.163 272.981,342.42 252.764,330.505 		"/>
		<polygon fill="#EFB550" points="274.17,320.733 294.177,309.191 294.177,331.353 274.17,342.777 		"/>
	</g>
	<g>
		<g>
			<g>
				<polygon fill="#EFDC7F" points="253.398,63.547 233.18,75.271 253.222,86.991 273.331,75.203 				"/>
				<polygon fill="#EFDC7F" points="274.631,75.776 254.413,87.5 274.305,99.309 294.551,87.447 				"/>
				<polygon fill="#EFDC7F" points="295.578,88.211 275.365,99.926 295.419,111.647 315.492,99.856 				"/>
				<polygon fill="#EFDC7F" points="316.682,100.552 296.481,112.268 316.526,123.984 336.607,112.203 				"/>
				<polygon fill="#EFDC7F" points="337.866,112.836 317.661,124.576 337.627,136.317 357.783,124.482 				"/>
				<polygon fill="#EFDC7F" points="358.793,125.27 338.686,136.931 358.731,148.649 378.716,136.92 				"/>
				<polygon fill="#EFDC7F" points="379.883,137.611 359.786,149.265 379.832,160.982 399.806,149.26 				"/>
				<polygon fill="#EFDC7F" points="400.924,149.948 380.844,161.592 400.907,173.3 420.851,161.6 				"/>
				<polygon fill="#EFDC7F" points="422.154,162.188 401.937,173.911 421.991,185.623 442.062,173.841 				"/>
				<polygon fill="#EFDC7F" points="443.252,174.562 423.075,186.256 443.109,197.988 463.144,186.222 				"/>
				<polygon fill="#EFDC7F" points="464.353,186.9 444.18,198.592 464.234,210.312 484.268,198.547 				"/>
			</g>
			<g>
				<polygon fill="#EFDC7F" points="232.396,75.689 212.177,87.413 232.22,99.134 252.328,87.344 				"/>
				<polygon fill="#EFDC7F" points="253.628,87.918 233.41,99.642 253.303,111.451 273.548,99.588 				"/>
				<polygon fill="#EFDC7F" points="274.576,100.354 254.362,112.068 274.416,123.788 294.489,111.998 				"/>
				<polygon fill="#EFDC7F" points="295.679,112.693 275.479,124.41 295.523,136.126 315.604,124.345 				"/>
				<polygon fill="#EFDC7F" points="316.863,124.978 296.658,136.718 316.625,148.459 336.78,136.625 				"/>
				<polygon fill="#EFDC7F" points="337.791,137.413 317.682,149.073 337.728,160.792 357.712,149.062 				"/>
				<polygon fill="#EFDC7F" points="358.881,149.753 338.782,161.406 358.83,173.125 378.804,161.402 				"/>
				<polygon fill="#EFDC7F" points="379.92,162.09 359.841,173.733 379.903,185.442 399.847,173.743 				"/>
				<polygon fill="#EFDC7F" points="401.151,174.329 380.934,186.053 400.989,197.766 421.059,185.984 				"/>
				<polygon fill="#EFDC7F" points="422.25,186.705 402.072,198.399 422.106,210.13 442.142,198.364 				"/>
				<polygon fill="#EFDC7F" points="443.351,199.043 423.176,210.732 443.232,222.454 463.267,210.689 				"/>
			</g>
			<g>
				<polygon fill="#EFDC7F" points="211.309,87.847 191.09,99.571 211.133,111.292 231.242,99.502 				"/>
				<polygon fill="#EFDC7F" points="232.542,100.077 212.323,111.8 232.216,123.609 252.46,111.747 				"/>
				<polygon fill="#EFDC7F" points="253.489,112.512 233.274,124.226 253.33,135.946 273.404,124.156 				"/>
				<polygon fill="#EFDC7F" points="274.592,124.852 254.393,136.568 274.438,148.283 294.519,136.503 				"/>
				<polygon fill="#EFDC7F" points="295.776,137.136 275.572,148.876 295.537,160.617 315.693,148.782 				"/>
				<polygon fill="#EFDC7F" points="316.704,149.57 296.595,161.23 316.642,172.949 336.625,161.22 				"/>
				<polygon fill="#EFDC7F" points="337.795,161.911 317.696,173.565 337.744,185.283 357.716,173.56 				"/>
				<polygon fill="#EFDC7F" points="358.834,174.249 338.755,185.891 358.816,197.6 378.759,185.9 				"/>
				<polygon fill="#EFDC7F" points="380.063,186.486 359.846,198.211 379.902,209.923 399.972,198.142 				"/>
				<polygon fill="#EFDC7F" points="401.162,198.862 380.986,210.557 401.021,222.287 421.056,210.522 				"/>
				<polygon fill="#EFDC7F" points="422.263,211.2 402.088,222.891 422.146,234.612 442.181,222.847 				"/>
			</g>
			<g>
				<polygon fill="#EFDC7F" points="190.122,100.077 169.904,111.8 189.946,123.521 210.055,111.732 				"/>
				<polygon fill="#EFDC7F" points="211.354,112.306 191.137,124.029 211.029,135.838 231.274,123.976 				"/>
				<polygon fill="#EFDC7F" points="232.302,124.742 212.088,136.455 232.142,148.176 252.216,136.386 				"/>
				<polygon fill="#EFDC7F" points="253.404,137.081 233.205,148.797 253.25,160.513 273.331,148.732 				"/>
				<polygon fill="#EFDC7F" points="274.59,149.365 254.385,161.105 274.351,172.847 294.507,161.012 				"/>
				<polygon fill="#EFDC7F" points="295.517,161.8 275.409,173.46 295.453,185.179 315.439,173.449 				"/>
				<polygon fill="#EFDC7F" points="316.607,174.141 296.51,185.793 316.556,197.513 336.529,185.79 				"/>
				<polygon fill="#EFDC7F" points="337.646,186.478 317.567,198.121 337.631,209.829 357.574,198.13 				"/>
				<polygon fill="#EFDC7F" points="358.878,198.717 338.659,210.44 358.715,222.153 378.785,210.371 				"/>
				<polygon fill="#EFDC7F" points="379.976,211.092 359.799,222.787 379.832,234.518 399.867,222.752 				"/>
				<polygon fill="#EFDC7F" points="401.075,223.431 380.902,235.121 400.957,246.842 420.992,235.076 				"/>
			</g>
			<g>
				<polygon fill="#EFDC7F" points="169.141,112.185 148.922,123.909 168.965,135.629 189.073,123.84 				"/>
				<polygon fill="#EFDC7F" points="190.373,124.414 170.155,136.138 190.048,147.946 210.293,136.083 				"/>
				<polygon fill="#EFDC7F" points="211.321,136.85 191.107,148.563 211.161,160.285 231.235,148.494 				"/>
				<polygon fill="#EFDC7F" points="232.424,149.189 212.225,160.905 232.269,172.621 252.35,160.84 				"/>
				<polygon fill="#EFDC7F" points="253.608,161.474 233.403,173.214 253.37,184.955 273.525,173.12 				"/>
				<polygon fill="#EFDC7F" points="274.536,173.909 254.427,185.568 274.473,197.288 294.458,185.559 				"/>
				<polygon fill="#EFDC7F" points="295.627,186.248 275.528,197.902 295.575,209.62 315.548,197.897 				"/>
				<polygon fill="#EFDC7F" points="316.666,198.586 296.587,210.229 316.649,221.937 336.593,210.238 				"/>
				<polygon fill="#EFDC7F" points="337.897,210.825 317.68,222.548 337.733,234.261 357.804,222.479 				"/>
				<polygon fill="#EFDC7F" points="358.994,223.199 338.817,234.894 358.853,246.625 378.888,234.859 				"/>
				<polygon fill="#EFDC7F" points="380.097,235.539 359.922,247.229 379.978,258.95 400.012,247.185 				"/>
			</g>
		</g>
		<g>
			<g>
				<polygon fill="#EFDC7F" points="147.899,124.438 127.681,136.162 147.723,147.883 167.831,136.094 				"/>
				<polygon fill="#EFDC7F" points="169.131,136.668 148.914,148.392 168.806,160.2 189.051,148.338 				"/>
				<polygon fill="#EFDC7F" points="190.079,149.104 169.865,160.817 189.92,172.538 209.994,160.748 				"/>
				<polygon fill="#EFDC7F" points="211.182,161.442 190.982,173.16 211.027,184.875 231.108,173.094 				"/>
				<polygon fill="#EFDC7F" points="232.366,173.727 212.162,185.468 232.128,197.209 252.283,185.374 				"/>
				<polygon fill="#EFDC7F" points="253.293,186.163 233.186,197.822 253.231,209.542 273.216,197.812 				"/>
				<polygon fill="#EFDC7F" points="274.384,198.501 254.286,210.156 274.332,221.875 294.306,210.152 				"/>
				<polygon fill="#EFDC7F" points="295.423,210.84 275.344,222.483 295.407,234.191 315.351,222.491 				"/>
				<polygon fill="#EFDC7F" points="316.654,223.078 296.436,234.802 316.492,246.515 336.562,234.734 				"/>
				<polygon fill="#EFDC7F" points="337.753,235.454 317.575,247.148 337.61,258.88 357.645,247.113 				"/>
				<polygon fill="#EFDC7F" points="358.854,247.792 338.682,259.482 358.735,271.204 378.77,259.438 				"/>
			</g>
			<g>
				<polygon fill="#EFDC7F" points="126.896,136.581 106.678,148.304 126.72,160.025 146.829,148.236 				"/>
				<polygon fill="#EFDC7F" points="148.129,148.81 127.911,160.534 147.803,172.342 168.049,160.48 				"/>
				<polygon fill="#EFDC7F" points="169.076,161.245 148.862,172.959 168.917,184.681 188.99,172.89 				"/>
				<polygon fill="#EFDC7F" points="190.179,173.585 169.979,185.301 190.024,197.017 210.104,185.237 				"/>
				<polygon fill="#EFDC7F" points="211.363,185.87 191.158,197.61 211.125,209.351 231.281,197.516 				"/>
				<polygon fill="#EFDC7F" points="232.292,198.304 212.183,209.964 232.228,221.683 252.213,209.954 				"/>
				<polygon fill="#EFDC7F" points="253.381,210.645 233.284,222.298 253.331,234.016 273.302,222.293 				"/>
				<polygon fill="#EFDC7F" points="274.422,222.981 254.341,234.625 274.405,246.334 294.349,234.634 				"/>
				<polygon fill="#EFDC7F" points="295.651,235.221 275.434,246.944 295.489,258.656 315.56,246.875 				"/>
				<polygon fill="#EFDC7F" points="316.75,247.596 296.572,259.29 316.607,271.021 336.643,259.255 				"/>
				<polygon fill="#EFDC7F" points="337.851,259.935 317.678,271.625 337.731,283.346 357.768,271.581 				"/>
			</g>
			<g>
				<polygon fill="#EFDC7F" points="105.809,148.739 85.591,160.462 105.633,172.183 125.742,160.395 				"/>
				<polygon fill="#EFDC7F" points="127.042,160.968 106.824,172.691 126.716,184.5 146.962,172.638 				"/>
				<polygon fill="#EFDC7F" points="147.989,173.403 127.775,185.117 147.83,196.838 167.903,185.048 				"/>
				<polygon fill="#EFDC7F" points="169.092,185.742 148.893,197.459 168.938,209.175 189.018,197.394 				"/>
				<polygon fill="#EFDC7F" points="190.276,198.027 170.071,209.768 190.038,221.509 210.194,209.673 				"/>
				<polygon fill="#EFDC7F" points="211.204,210.462 191.096,222.122 211.141,233.842 231.126,222.112 				"/>
				<polygon fill="#EFDC7F" points="232.295,222.802 212.197,234.456 232.243,246.174 252.216,234.451 				"/>
				<polygon fill="#EFDC7F" points="253.334,235.14 233.254,246.783 253.317,258.491 273.261,246.792 				"/>
				<polygon fill="#EFDC7F" points="274.564,247.379 254.347,259.102 274.403,270.815 294.473,259.033 				"/>
				<polygon fill="#EFDC7F" points="295.662,259.753 275.487,271.448 295.521,283.18 315.556,271.413 				"/>
				<polygon fill="#EFDC7F" points="316.763,272.092 296.59,283.783 316.646,295.504 336.681,283.738 				"/>
			</g>
			<g>
				<polygon fill="#EFDC7F" points="84.622,160.968 64.404,172.691 84.446,184.413 104.555,172.624 				"/>
				<polygon fill="#EFDC7F" points="105.854,173.197 85.636,184.921 105.529,196.73 125.775,184.867 				"/>
				<polygon fill="#EFDC7F" points="126.802,185.633 106.588,197.346 126.643,209.068 146.716,197.277 				"/>
				<polygon fill="#EFDC7F" points="147.905,197.972 127.706,209.689 147.75,221.404 167.831,209.624 				"/>
				<polygon fill="#EFDC7F" points="169.09,210.256 148.884,221.998 168.852,233.738 189.007,221.902 				"/>
				<polygon fill="#EFDC7F" points="190.017,222.691 169.909,234.352 189.955,246.07 209.94,234.342 				"/>
				<polygon fill="#EFDC7F" points="211.108,235.031 191.01,246.686 211.056,258.404 231.029,246.68 				"/>
				<polygon fill="#EFDC7F" points="232.147,247.369 212.068,259.012 232.131,270.721 252.074,259.021 				"/>
				<polygon fill="#EFDC7F" points="253.377,259.608 233.16,271.332 253.215,283.044 273.285,271.262 				"/>
				<polygon fill="#EFDC7F" points="274.476,271.983 254.299,283.678 274.334,295.408 294.367,283.643 				"/>
				<polygon fill="#EFDC7F" points="295.576,284.321 275.403,296.012 295.459,307.732 315.492,295.967 				"/>
			</g>
			<g>
				<polygon fill="#EFDC7F" points="63.641,173.076 43.423,184.799 63.465,196.521 83.574,184.732 				"/>
				<polygon fill="#EFDC7F" points="84.874,185.306 64.656,197.029 84.548,208.838 104.793,196.976 				"/>
				<polygon fill="#EFDC7F" points="105.821,197.74 85.607,209.454 105.662,221.176 125.735,209.385 				"/>
				<polygon fill="#EFDC7F" points="126.924,210.081 106.725,221.797 126.77,233.513 146.85,221.732 				"/>
				<polygon fill="#EFDC7F" points="148.108,222.365 127.904,234.105 147.87,245.847 168.026,234.011 				"/>
				<polygon fill="#EFDC7F" points="169.037,234.8 148.928,246.46 168.973,258.179 188.958,246.449 				"/>
				<polygon fill="#EFDC7F" points="190.127,247.14 170.029,258.793 190.075,270.512 210.048,258.789 				"/>
				<polygon fill="#EFDC7F" points="211.166,259.478 191.087,271.12 211.15,282.829 231.093,271.13 				"/>
				<polygon fill="#EFDC7F" points="232.397,271.716 212.179,283.44 232.235,295.152 252.304,283.371 				"/>
				<polygon fill="#EFDC7F" points="253.495,284.091 233.319,295.785 253.353,307.518 273.387,295.751 				"/>
				<polygon fill="#EFDC7F" points="274.595,296.43 254.422,308.12 274.478,319.841 294.512,308.076 				"/>
			</g>
		</g>
	</g>
</g>
</svg>
